<?xml version="1.0" encoding="UTF-8"?>
<svg id="Capa_3" data-name="Capa 3" xmlns="http://www.w3.org/2000/svg" xmlns:xlink="http://www.w3.org/1999/xlink" viewBox="0 0 1826.44 662.11">
  <defs>
    <style>
      .cls-1 {
        fill: url(#Degradado_sin_nombre_7-3);
      }

      .cls-2 {
        font-family: ArialMT, Arial;
        font-size: 88.72px;
      }

      .cls-2, .cls-3 {
        isolation: isolate;
      }

      .cls-2, .cls-4 {
        fill: #fff;
        stroke: #fff;
        stroke-miterlimit: 10;
      }

      .cls-5 {
        fill: #29e34e;
      }

      .cls-6 {
        fill: url(#Degradado_sin_nombre_7-2);
      }

      .cls-3 {
        fill: none;
      }

      .cls-7 {
        fill: url(#Degradado_sin_nombre_7-4);
      }

      .cls-8 {
        fill: url(#Degradado_sin_nombre_4);
      }

      .cls-9 {
        fill: url(#Degradado_sin_nombre_7);
      }
    </style>
    <linearGradient id="Degradado_sin_nombre_7" data-name="Degradado sin nombre 7" x1="-6352.35" y1="-1476.04" x2="-6350.14" y2="-1480.48" gradientTransform="translate(187377.6 -40767.51) scale(29.45 -27.66)" gradientUnits="userSpaceOnUse">
      <stop offset="0" stop-color="#0f6aef"/>
      <stop offset="1" stop-color="#f7ff00"/>
    </linearGradient>
    <linearGradient id="Degradado_sin_nombre_4" data-name="Degradado sin nombre 4" x1="-6621.95" y1="-1315.86" x2="-6614.25" y2="-1320.16" gradientTransform="translate(175590.36 -43249.06) scale(27.66 -29.45)" gradientUnits="userSpaceOnUse">
      <stop offset="0" stop-color="#ffeb00"/>
      <stop offset="1" stop-color="#00e22d" stop-opacity=".82"/>
    </linearGradient>
    <linearGradient id="Degradado_sin_nombre_7-2" data-name="Degradado sin nombre 7" x1="-6498.14" y1="-1136.84" x2="-6501.9" y2="-1140.7" gradientTransform="translate(32008.04 191728.14) rotate(90) scale(29.45 -27.66)" xlink:href="#Degradado_sin_nombre_7"/>
    <linearGradient id="Degradado_sin_nombre_7-3" data-name="Degradado sin nombre 7" x1="-6821.31" y1="-1297.51" x2="-6816.3" y2="-1298.19" gradientTransform="translate(-200487.61 36358.57) rotate(-180) scale(29.45 -27.66)" xlink:href="#Degradado_sin_nombre_7"/>
    <linearGradient id="Degradado_sin_nombre_7-4" data-name="Degradado sin nombre 7" x1="-6670.3" y1="-1634.58" x2="-6670.86" y2="-1639.03" gradientTransform="translate(-45118.03 -196137.09) rotate(-90) scale(29.45 -27.66)" xlink:href="#Degradado_sin_nombre_7"/>
  </defs>
  <g id="LogoVitamed-06">
    <g id="Grupo_32" data-name="Grupo 32">
      <path id="Trazado_63" data-name="Trazado 63" class="cls-4" d="m755.08,342.24l-67.99-155.17h-29.12l83.05,188.75h26.69l82.79-188.75h-26.96l-68.46,155.17Z"/>
      <rect id="Rectángulo_147" data-name="Rectángulo 147" class="cls-4" x="870.99" y="232.9" width="25.89" height="142.92"/>
      <path id="Trazado_64" data-name="Trazado 64" class="cls-4" d="m883.94,171.7c-4.66-.15-9.19,1.6-12.54,4.85-3.3,3.16-5.11,7.57-4.99,12.14-.11,4.49,1.7,8.8,4.99,11.86,7.16,6.51,18.12,6.46,25.21-.13,3.22-3.26,4.97-7.69,4.85-12.27.13-4.45-1.69-8.73-4.99-11.72-3.39-3.16-7.9-4.86-12.54-4.71v-.02Z"/>
      <path id="Trazado_65" data-name="Trazado 65" class="cls-4" d="m998.26,355.59c-6.16.4-12.2-1.86-16.58-6.21-4.15-4.96-6.23-11.33-5.79-17.79v-77.35h40.99v-21.29h-40.99v-31.32h-25.89v31.32h-24.26v21.29h24.27v78.46c-.81,12.22,3.49,24.23,11.86,33.16,9.14,8.19,21.19,12.36,33.44,11.6,5.79.02,11.56-.8,17.12-2.43,5.22-1.46,10.06-4.04,14.2-7.55l-8.09-18.63c-5.71,4.6-12.89,7-20.22,6.74h-.05Z"/>
      <path id="Trazado_66" data-name="Trazado 66" class="cls-4" d="m1155.19,245.86c-12.78-10.26-28.94-15.36-45.3-14.29-11.01-.05-21.96,1.54-32.5,4.71-9.65,2.79-18.66,7.41-26.55,13.62l10.78,19.42c6.08-4.96,13.03-8.75,20.49-11.2,7.99-2.77,16.39-4.18,24.84-4.18,10.38-.79,20.66,2.44,28.71,9.04,6.66,6.75,10.14,16.01,9.56,25.48v5.13h-40.99c-11.55-.48-23.07,1.45-33.84,5.67-7.45,3.01-13.77,8.29-18.06,15.08-3.71,6.38-5.62,13.65-5.53,21.03-.06,7.72,2.2,15.27,6.47,21.7,4.62,6.64,11.02,11.83,18.47,14.97,8.81,3.76,18.33,5.6,27.91,5.39,11.33.42,22.58-2.13,32.62-7.41,5.71-3.17,10.61-7.63,14.29-13.02v18.83h24.54v-86.29c1.29-16.18-4.52-32.12-15.92-43.68Zm-25.73,105.17c-7.75,4.43-16.56,6.67-25.48,6.47-8.21.46-16.35-1.76-23.19-6.33-5.41-3.88-8.55-10.2-8.37-16.86-.07-5.93,2.38-11.62,6.74-15.63,7.66-5.22,16.94-7.52,26.15-6.47h39.92v19.95c-2.94,7.91-8.51,14.58-15.77,18.87h0Z"/>
      <path id="Trazado_67" data-name="Trazado 67" class="cls-4" d="m1401.38,187.07l-77.69,132.58-78.7-132.58h-22.12v188.75h25.89v-136.79l68.23,113.87h12.42l68.24-114.73.27,137.64h25.88l-.28-188.75h-22.14Z"/>
      <path id="Trazado_68" data-name="Trazado 68" class="cls-4" d="m1571.8,240.72c-22.97-12.27-50.56-12.22-73.48.14-10.74,6.06-19.6,14.96-25.61,25.73-6.35,11.55-9.56,24.57-9.31,37.75-.25,13.22,3.06,26.26,9.58,37.75,6.39,10.98,15.74,19.95,26.97,25.89,12.42,6.49,26.29,9.74,40.31,9.44,11.03.16,21.97-1.86,32.22-5.93,9.31-3.73,17.59-9.65,24.13-17.26l-14.29-16.72c-5.03,5.62-11.25,10.04-18.21,12.94-7.33,2.96-15.17,4.42-23.07,4.31-9.45.18-18.8-1.95-27.24-6.21-7.69-3.92-14.1-9.95-18.47-17.39-3.28-5.58-5.37-11.78-6.15-18.21h116.03c.19-1.25.31-2.61.4-4.05.09-1.44.13-2.66.13-3.77.31-13.45-2.8-26.76-9.03-38.69-5.74-10.74-14.39-19.66-24.95-25.73l.02-.02Zm-60.67,18.75c15.02-8.09,33.11-8.09,48.13,0,6.89,4.01,12.53,9.84,16.32,16.86,3.04,5.58,4.89,11.73,5.43,18.06h-91.85c.67-6.28,2.55-12.37,5.54-17.93,3.78-7.1,9.48-12.99,16.45-16.99h0Z"/>
      <path id="Trazado_69" data-name="Trazado 69" class="cls-4" d="m1750.57,175.73v78.88c-4.66-6.12-10.54-11.22-17.26-14.98-9.99-5.47-21.23-8.25-32.62-8.09-12.95-.22-25.72,2.94-37.08,9.16-10.74,5.99-19.63,14.8-25.73,25.48-12.58,23.93-12.58,52.51,0,76.44,6.06,10.74,14.96,19.6,25.73,25.61,11.35,6.23,24.13,9.39,37.08,9.16,11.58.21,23.02-2.63,33.16-8.22,7.01-3.98,13.08-9.43,17.79-15.97v22.59h24.84v-200.08h-25.92Zm-6.07,155.18c-3.98,7.39-9.96,13.52-17.27,17.66-15.27,8.26-33.67,8.26-48.94,0-7.26-4.2-13.23-10.31-17.26-17.66-8.63-16.66-8.63-36.46,0-53.12,4.09-7.24,10.05-13.24,17.26-17.39,15.27-8.26,33.67-8.26,48.94,0,7.25,4.1,13.22,10.12,17.27,17.39,8.45,16.7,8.45,36.42,0,53.12Z"/>
    </g>
    <g id="Salud_Integral" data-name="Salud Integral" class="cls-3">
      <text class="cls-2" transform="translate(1171.1 471.92)"><tspan x="0" y="0">Salud Integral</tspan></text>
    </g>
  </g>
  <g id="Grupo_33" data-name="Grupo 33">
    <path id="Trazado_59-2" data-name="Trazado 59-2" class="cls-5" d="m87.18,205c-28.66,28.66-31.63,74.12-6.95,106.27-27.98,34.72-22.52,85.54,12.2,113.52,32.16,25.92,78.69,23.39,107.85-5.87l94.04-94.04,4.97-4.97,8.52-8.52-8.52-8.52-4.97-4.97-93.02-92.93c-31.53-31.53-82.65-31.53-114.17,0l.04.02Zm6.37,156.82c-.03-13.17,5.2-25.81,14.54-35.1l6.79-6.79,8.51-8.51-8.51-8.52-5.71-5.71c-20.18-18.59-21.46-50.03-2.87-70.2,18.59-20.18,50.03-21.46,70.2-2.87.99.92,1.95,1.87,2.87,2.87l84.44,84.44-85.51,85.51c-19.44,19.36-50.9,19.3-70.26-.14-9.25-9.29-14.46-21.85-14.48-34.96v-.02Z"/>
    <path id="Trazado_60-2" data-name="Trazado 60-2" class="cls-9" d="m440.88,64.98c-28.66-28.66-74.12-31.63-106.27-6.95-34.76-27.93-85.58-22.39-113.51,12.36-25.82,32.13-23.29,78.55,5.87,107.68l94.04,94.04,4.97,4.97,8.52,8.52,8.52-8.52,4.97-4.97,92.95-92.95c31.53-31.53,31.53-82.65,0-114.17l-.06-.02Zm-156.82,6.37c13.17-.03,25.81,5.2,35.1,14.54l6.79,6.79,8.51,8.51,8.52-8.51,5.71-5.71c18.59-20.18,50.03-21.46,70.2-2.87,20.18,18.59,21.46,50.03,2.87,70.2-.92.99-1.87,1.95-2.87,2.87l-84.44,84.44-85.51-85.51c-19.36-19.44-19.3-50.9.14-70.26,9.29-9.25,21.85-14.46,34.96-14.48h.02Z"/>
    <path id="Trazado_61-2" data-name="Trazado 61-2" class="cls-5" d="m440.88,558.93c-28.66,28.66-74.12,31.63-106.27,6.95-34.76,27.93-85.58,22.39-113.51-12.36-25.82-32.13-23.29-78.55,5.87-107.68l94.04-94.04,4.97-4.97,8.52-8.52,8.52,8.52,4.97,4.97,92.95,92.95c31.53,31.53,31.53,82.65,0,114.17l-.06.02Zm-156.82-6.37c13.17.03,25.81-5.2,35.1-14.54l6.79-6.79,8.51-8.51,8.52,8.51,5.71,5.71c18.59,20.18,50.03,21.46,70.2,2.87,20.18-18.59,21.46-50.03,2.87-70.2-.92-.99-1.87-1.95-2.87-2.87l-84.44-84.44-85.51,85.51c-19.36,19.44-19.3,50.9.14,70.26,9.29,9.25,21.85,14.46,34.96,14.48h.02Z"/>
    <path id="Trazado_62-2" data-name="Trazado 62-2" class="cls-8" d="m581.14,418.91c28.66-28.66,31.63-74.12,6.95-106.27,27.93-34.76,22.39-85.58-12.36-113.51-32.13-25.82-78.55-23.29-107.68,5.87l-94.04,94.04-4.97,4.97-8.52,8.52,8.52,8.52,4.97,4.97,92.95,92.95c31.53,31.53,82.65,31.53,114.17,0l.02-.06Zm-6.37-156.82c.03,13.17-5.2,25.81-14.54,35.1l-6.79,6.79-8.51,8.51,8.51,8.52,5.71,5.71c20.18,18.59,21.46,50.03,2.87,70.2-18.59,20.18-50.03,21.46-70.2,2.87-.99-.92-1.95-1.87-2.87-2.87l-84.44-84.44,85.51-85.51c19.44-19.36,50.9-19.3,70.26.14,9.25,9.29,14.46,21.85,14.48,34.96v.02Z"/>
  </g>
  <path id="Trazado_70" data-name="Trazado 70" class="cls-6" d="m581.14,418.89c28.66-28.66,31.63-74.12,6.95-106.27,27.93-34.76,22.39-85.58-12.36-113.51-32.13-25.82-78.55-23.29-107.68,5.87l-94.04,94.04-4.97,4.97-8.52,8.52,8.52,8.52,4.97,4.97,92.95,92.95c31.53,31.53,82.65,31.53,114.17,0l.02-.06Zm-6.37-156.82c.03,13.17-5.2,25.81-14.54,35.1l-6.79,6.79-8.51,8.51,8.51,8.52,5.71,5.71c20.18,18.59,21.46,50.03,2.87,70.2-18.59,20.18-50.03,21.46-70.2,2.87-.99-.92-1.95-1.87-2.87-2.87l-84.44-84.44,85.51-85.51c19.44-19.36,50.9-19.3,70.26.14,9.25,9.29,14.46,21.85,14.48,34.96v.02Z"/>
  <path id="Trazado_71" data-name="Trazado 71" class="cls-1" d="m227.21,558.93c28.66,28.66,74.12,31.63,106.27,6.95,34.76,27.93,85.58,22.39,113.51-12.36,25.82-32.13,23.29-78.55-5.87-107.68l-94.04-94.04-4.97-4.97-8.52-8.52-8.52,8.52-4.97,4.97-92.95,92.95c-31.53,31.53-31.53,82.65,0,114.17l.06.02Zm156.82-6.37c-13.17.03-25.81-5.2-35.1-14.54l-6.79-6.79-8.51-8.51-8.52,8.51-5.71,5.71c-18.59,20.18-50.03,21.46-70.2,2.87-20.18-18.59-21.46-50.03-2.87-70.2.92-.99,1.87-1.95,2.87-2.87l84.44-84.44,85.51,85.51c19.36,19.44,19.3,50.9-.14,70.26-9.29,9.25-21.85,14.46-34.96,14.48h-.02Z"/>
  <path id="Trazado_72" data-name="Trazado 72" class="cls-7" d="m87.18,205.01c-28.66,28.66-31.63,74.12-6.95,106.27-27.93,34.76-22.39,85.58,12.36,113.51,32.13,25.82,78.55,23.29,107.68-5.87l94.04-94.04,4.97-4.97,8.52-8.52-8.52-8.52-4.97-4.97-92.95-92.95c-31.53-31.53-82.65-31.53-114.17,0l-.02.06Zm6.37,156.82c-.03-13.17,5.2-25.81,14.54-35.1l6.79-6.79,8.51-8.51-8.51-8.52-5.71-5.71c-20.18-18.59-21.46-50.03-2.87-70.2,18.59-20.18,50.03-21.46,70.2-2.87.99.92,1.95,1.87,2.87,2.87l84.44,84.44-85.51,85.51c-19.44,19.36-50.9,19.3-70.26-.14-9.25-9.29-14.46-21.85-14.48-34.96v-.02Z"/>
</svg>