<?xml version="1.0" encoding="UTF-8"?>
<svg id="Capa_3" data-name="Capa 3" xmlns="http://www.w3.org/2000/svg" xmlns:xlink="http://www.w3.org/1999/xlink" viewBox="0 0 1830.94 627.33">
  <defs>
    <style>
      .cls-1 {
        fill: url(#Degradado_sin_nombre_6-2);
      }

      .cls-2 {
        fill: url(#Degradado_sin_nombre_6);
      }

      .cls-3 {
        fill: #00112d;
      }

      .cls-4 {
        fill: url(#Degradado_sin_nombre_6-3);
      }

      .cls-5 {
        fill: url(#Degradado_sin_nombre_6-4);
      }

      .cls-6 {
        font-family: ArialMT, Arial;
        font-size: 100px;
      }
    </style>
    <linearGradient id="Degradado_sin_nombre_6" data-name="Degradado sin nombre 6" x1="-7842.26" y1="6207.11" x2="-7629.82" y2="6333.33" gradientTransform="translate(-6110.23 -7413.47) rotate(-90)" gradientUnits="userSpaceOnUse">
      <stop offset="0" stop-color="#0f6aef"/>
      <stop offset="1" stop-color="#009ee2"/>
    </linearGradient>
    <linearGradient id="Degradado_sin_nombre_6-2" data-name="Degradado sin nombre 6" x1="219.5" y1="75.67" x2="431.93" y2="201.89" gradientTransform="matrix(1,0,0,1,0,0)" xlink:href="#Degradado_sin_nombre_6"/>
    <linearGradient id="Degradado_sin_nombre_6-3" data-name="Degradado sin nombre 6" x1="219.5" y1="-2233.47" x2="431.93" y2="-2107.25" gradientTransform="translate(0 -1681.81) scale(1 -1)" xlink:href="#Degradado_sin_nombre_6"/>
    <linearGradient id="Degradado_sin_nombre_6-4" data-name="Degradado sin nombre 6" x1="-5571.38" y1="-8215.59" x2="-5358.94" y2="-8089.37" gradientTransform="translate(-7642.74 5769.91) rotate(90)" xlink:href="#Degradado_sin_nombre_6"/>
  </defs>
  <g>
    <text/>
    <path class="cls-2" d="m88.6,207.02c-15.2,15.2-23.58,35.42-23.58,56.92,0,17.97,5.85,35.05,16.65,49.04-11.48,14.25-17.72,31.84-17.72,50.4,0,21.5,8.37,41.72,23.58,56.92,15.2,15.2,35.42,23.58,56.92,23.58,21.5,0,41.72-8.37,56.92-23.58l93.74-93.74,4.95-4.95,8.49-8.49-8.49-8.49-4.95-4.95-92.68-92.68c-15.2-15.2-35.42-23.58-56.92-23.58-21.5,0-41.72,8.37-56.92,23.58Zm6.35,156.37c0-13.22,5.15-25.65,14.5-35l6.77-6.77,8.48-8.48-8.48-8.49-5.7-5.7c-9.35-9.35-14.5-21.78-14.5-35,0-13.22,5.15-25.65,14.5-35,9.35-9.35,21.78-14.5,35-14.5,13.22,0,25.65,5.15,35,14.5l84.19,84.19-85.26,85.26c-9.35,9.35-21.78,14.5-35,14.5-13.22,0-25.65-5.15-35-14.5-9.35-9.35-14.5-21.78-14.5-35Z"/>
    <path class="cls-1" d="m441.27,67.41c-15.2-15.2-35.42-23.58-56.92-23.58-17.97,0-35.05,5.85-49.04,16.65-14.25-11.48-31.84-17.72-50.4-17.72-21.5,0-41.72,8.37-56.92,23.58-15.2,15.2-23.58,35.42-23.58,56.92s8.37,41.72,23.58,56.92l93.74,93.74,4.95,4.95,8.49,8.49,8.49-8.49,4.95-4.95,92.68-92.68c15.2-15.2,23.58-35.42,23.58-56.92s-8.37-41.72-23.58-56.92Zm-156.37,6.35c13.22,0,25.65,5.15,35,14.5l6.77,6.77,8.48,8.48,8.49-8.48,5.7-5.7c9.35-9.35,21.78-14.5,35-14.5s25.65,5.15,35,14.5c9.35,9.35,14.5,21.78,14.5,35,0,13.22-5.15,25.65-14.5,35l-84.19,84.19-85.26-85.26c-9.35-9.35-14.5-21.78-14.5-35s5.15-25.65,14.5-35c9.35-9.35,21.78-14.5,35-14.5Z"/>
    <path class="cls-4" d="m441.27,559.92c-15.2,15.2-35.42,23.58-56.92,23.58-17.97,0-35.05-5.85-49.04-16.65-14.25,11.48-31.84,17.72-50.4,17.72-21.5,0-41.72-8.37-56.92-23.58-15.2-15.2-23.58-35.42-23.58-56.92s8.37-41.72,23.58-56.92l93.74-93.74,4.95-4.95,8.49-8.49,8.49,8.49,4.95,4.95,92.68,92.68c15.2,15.2,23.58,35.42,23.58,56.92s-8.37,41.72-23.58,56.92Zm-156.37-6.35c13.22,0,25.65-5.15,35-14.5l6.77-6.77,8.48-8.48,8.49,8.48,5.7,5.7c9.35,9.35,21.78,14.5,35,14.5s25.65-5.15,35-14.5c9.35-9.35,14.5-21.78,14.5-35,0-13.22-5.15-25.65-14.5-35l-84.19-84.19-85.26,85.26c-9.35,9.35-14.5,21.78-14.5,35s5.15,25.65,14.5,35c9.35,9.35,21.78,14.5,35,14.5Z"/>
    <path class="cls-5" d="m581.12,420.31c15.2-15.2,23.58-35.42,23.58-56.92,0-17.97-5.85-35.05-16.65-49.04,11.48-14.25,17.72-31.84,17.72-50.4,0-21.5-8.37-41.72-23.58-56.92-15.2-15.2-35.42-23.58-56.92-23.58-21.5,0-41.72,8.37-56.92,23.58l-93.74,93.74-4.95,4.95-8.49,8.49,8.49,8.49,4.95,4.95,92.68,92.68c15.2,15.2,35.42,23.58,56.92,23.58,21.5,0,41.72-8.37,56.92-23.58Zm-6.35-156.37c0,13.22-5.15,25.65-14.5,35l-6.77,6.77-8.48,8.48,8.48,8.49,5.7,5.7c9.35,9.35,14.5,21.78,14.5,35,0,13.22-5.15,25.65-14.5,35-9.35,9.35-21.78,14.5-35,14.5-13.22,0-25.65-5.15-35-14.5l-84.19-84.19,85.26-85.26c9.35-9.35,21.78-14.5,35-14.5,13.22,0,25.65,5.15,35,14.5,9.35,9.35,14.5,21.78,14.5,35Z"/>
  </g>
  <g>
    <polygon class="cls-3" points="766.91 355.07 699.12 200.35 670.09 200.35 752.9 388.55 779.51 388.55 862.05 200.35 835.17 200.35 766.91 355.07"/>
    <rect class="cls-3" x="882.49" y="246.05" width="25.81" height="142.5"/>
    <path class="cls-3" d="m895.39,185.02c-5.02,0-9.19,1.61-12.5,4.84-3.32,3.23-4.97,7.26-4.97,12.1s1.66,8.6,4.97,11.83c3.32,3.23,7.48,4.84,12.5,4.84s9.41-1.66,12.64-4.97c3.23-3.31,4.84-7.39,4.84-12.23s-1.66-8.56-4.97-11.69c-3.32-3.13-7.49-4.7-12.5-4.7Z"/>
    <path class="cls-3" d="m1009.39,368.38c-7.17,0-12.68-2.06-16.53-6.18-3.86-4.12-5.78-10.04-5.78-17.74v-77.16h40.87v-21.24h-40.87v-31.19h-25.81v31.19h-24.2v21.24h24.2v78.24c0,14.34,3.94,25.37,11.83,33.07,7.89,7.71,19,11.56,33.34,11.56,5.91,0,11.6-.81,17.07-2.42,5.47-1.61,10.17-4.12,14.12-7.53l-8.07-18.55c-5.38,4.48-12.1,6.72-20.16,6.72Z"/>
    <path class="cls-3" d="m1165.86,258.96c-10.58-9.5-25.63-14.25-45.17-14.25-11.29,0-22.09,1.57-32.4,4.7-10.31,3.14-19.14,7.66-26.48,13.58l10.75,19.36c5.55-4.66,12.37-8.38,20.43-11.16,8.07-2.78,16.31-4.17,24.74-4.17,12.72,0,22.27,3,28.63,9.01,6.36,6.01,9.54,14.48,9.54,25.41v5.11h-40.87c-14.16,0-25.41,1.88-33.74,5.65s-14.34,8.79-18.01,15.06c-3.68,6.28-5.51,13.27-5.51,20.97s2.15,15.28,6.45,21.64c4.3,6.36,10.44,11.34,18.42,14.92,7.97,3.59,17.25,5.38,27.83,5.38,13.08,0,23.93-2.46,32.53-7.39,6.04-3.46,10.77-7.8,14.25-12.99v18.77h24.47v-86.04c0-19.53-5.29-34.05-15.86-43.56Zm-25.68,104.86c-7.26,4.3-15.73,6.45-25.41,6.45s-17.57-2.1-23.12-6.32c-5.56-4.21-8.34-9.81-8.34-16.8,0-6.09,2.24-11.29,6.72-15.59,4.48-4.3,13.17-6.45,26.08-6.45h39.79v19.9c-3.23,8.25-8.47,14.52-15.73,18.82Z"/>
    <polygon class="cls-3" points="1411.33 200.35 1333.86 332.54 1255.39 200.35 1233.34 200.35 1233.34 388.55 1259.15 388.55 1259.15 252.16 1327.18 365.7 1339.54 365.7 1407.58 251.31 1407.84 388.55 1433.65 388.55 1433.38 200.35 1411.33 200.35"/>
    <path class="cls-3" d="m1581.25,253.85c-10.58-6.09-22.76-9.14-36.57-9.14s-25.86,3.09-36.7,9.28c-10.85,6.18-19.36,14.74-25.54,25.68-6.18,10.94-9.28,23.48-9.28,37.64s3.18,26.71,9.55,37.64c6.36,10.93,15.32,19.54,26.89,25.81,11.56,6.28,24.96,9.41,40.19,9.41,11.83,0,22.54-1.97,32.13-5.91,9.59-3.94,17.61-9.68,24.06-17.21l-14.25-16.67c-5.2,5.74-11.25,10.04-18.15,12.91-6.9,2.87-14.56,4.3-22.99,4.3-10.22,0-19.27-2.06-27.16-6.18-7.89-4.12-14.03-9.9-18.42-17.34-3.24-5.49-5.28-11.54-6.13-18.15h115.69c.18-1.25.31-2.6.4-4.03.09-1.43.13-2.69.13-3.76,0-14.69-3-27.56-9.01-38.58-6.01-11.02-14.3-19.58-24.87-25.68Zm-60.49,18.69c6.99-4.03,14.96-6.05,23.93-6.05s17.16,2.02,24.06,6.05c6.9,4.03,12.32,9.64,16.27,16.81,2.99,5.44,4.79,11.44,5.41,18.01h-91.58c.75-6.53,2.59-12.49,5.52-17.88,3.94-7.26,9.41-12.91,16.4-16.94Z"/>
    <path class="cls-3" d="m1759.5,189.05v78.65c-4.83-6.24-10.55-11.24-17.21-14.93-9.68-5.38-20.53-8.07-32.53-8.07-13.8,0-26.13,3.05-36.97,9.14-10.85,6.1-19.4,14.57-25.68,25.41-6.28,10.85-9.41,23.53-9.41,38.04s3.13,27.25,9.41,38.18c6.27,10.93,14.83,19.45,25.68,25.54,10.84,6.1,23.16,9.14,36.97,9.14,12.37,0,23.39-2.73,33.07-8.2,6.96-3.93,12.87-9.26,17.74-15.93v22.52h24.73v-199.5h-25.81Zm-6.05,154.73c-4.21,7.62-9.95,13.49-17.21,17.61-7.26,4.12-15.37,6.18-24.33,6.18s-17.3-2.06-24.47-6.18c-7.17-4.12-12.91-9.99-17.21-17.61-4.3-7.62-6.45-16.44-6.45-26.48s2.15-19.04,6.45-26.48c4.3-7.44,10.04-13.22,17.21-17.34,7.17-4.12,15.32-6.18,24.47-6.18s17.07,2.06,24.33,6.18c7.26,4.12,12.99,9.91,17.21,17.34,4.21,7.44,6.32,16.27,6.32,26.48s-2.11,18.87-6.32,26.48Z"/>
  </g>
  <text class="cls-6" transform="translate(1181.72 495.74)"><tspan x="0" y="0">Salud Integral</tspan></text>
</svg>