<?xml version="1.0" encoding="UTF-8"?>
<svg id="Capa_3" data-name="Capa 3" xmlns="http://www.w3.org/2000/svg" xmlns:xlink="http://www.w3.org/1999/xlink" viewBox="0 0 508.6 299.18">
  <defs>
    <style>
      .cls-1 {
        fill: url(#Degradado_sin_nombre_6-2);
      }

      .cls-2 {
        fill: url(#Degradado_sin_nombre_6);
      }

      .cls-3 {
        fill: url(#Degradado_sin_nombre_6-3);
      }

      .cls-4 {
        fill: url(#Degradado_sin_nombre_6-4);
      }

      .cls-5 {
        fill: url(#Degradado_sin_nombre_6-5);
      }
    </style>
    <linearGradient id="Degradado_sin_nombre_6" data-name="Degradado sin nombre 6" x1="-9930.71" y1="7960.05" x2="-9841.12" y2="8013.28" gradientTransform="translate(-7925.78 -9737.79) rotate(-90)" gradientUnits="userSpaceOnUse">
      <stop offset="0" stop-color="#0f6aef"/>
      <stop offset="1" stop-color="#009ee2"/>
    </linearGradient>
    <linearGradient id="Degradado_sin_nombre_6-2" data-name="Degradado sin nombre 6" x1="85.98" y1="44" x2="175.57" y2="97.23" gradientTransform="matrix(1,0,0,1,0,0)" xlink:href="#Degradado_sin_nombre_6"/>
    <linearGradient id="Degradado_sin_nombre_6-3" data-name="Degradado sin nombre 6" x1="85.98" y1="-2435.32" x2="175.57" y2="-2382.09" gradientTransform="translate(0 -2190.58) scale(1 -1)" xlink:href="#Degradado_sin_nombre_6"/>
    <linearGradient id="Degradado_sin_nombre_6-4" data-name="Degradado sin nombre 6" x1="-7489.65" y1="-10202.06" x2="-7400.06" y2="-10148.82" gradientTransform="translate(-9967.06 7585.46) rotate(90)" xlink:href="#Degradado_sin_nombre_6"/>
    <linearGradient id="Degradado_sin_nombre_6-5" data-name="Degradado sin nombre 6" x1="256.48" y1="144.37" x2="472.98" y2="144.37" gradientTransform="matrix(1,0,0,1,0,0)" xlink:href="#Degradado_sin_nombre_6"/>
  </defs>
  <text/>
  <path class="cls-2" d="m30.77,99.39c-6.41,6.41-9.94,14.94-9.94,24.01,0,7.58,2.47,14.78,7.02,20.68-4.84,6.01-7.47,13.43-7.47,21.26,0,9.07,3.53,17.59,9.94,24.01,6.41,6.41,14.94,9.94,24.01,9.94,9.07,0,17.59-3.53,24.01-9.94l39.54-39.54,2.09-2.09,3.58-3.58-3.58-3.58-2.09-2.09-39.09-39.08c-6.41-6.41-14.94-9.94-24.01-9.94-9.07,0-17.59,3.53-24.01,9.94Zm2.68,65.95c0-5.58,2.17-10.82,6.11-14.76l2.86-2.86,3.58-3.58-3.58-3.58-2.4-2.4c-3.94-3.94-6.11-9.19-6.11-14.76,0-5.58,2.17-10.82,6.11-14.76,3.94-3.94,9.19-6.11,14.76-6.11,5.58,0,10.82,2.17,14.76,6.11l35.51,35.51-35.96,35.96c-3.94,3.94-9.19,6.11-14.76,6.11s-10.82-2.17-14.76-6.11c-3.94-3.94-6.11-9.19-6.11-14.76Z"/>
  <path class="cls-1" d="m179.51,40.51c-6.41-6.41-14.94-9.94-24.01-9.94-7.58,0-14.78,2.47-20.68,7.02-6.01-4.84-13.43-7.47-21.26-7.47-9.07,0-17.59,3.53-24.01,9.94-6.41,6.41-9.94,14.94-9.94,24.01s3.53,17.59,9.94,24.01l39.54,39.54,2.09,2.09,3.58,3.58,3.58-3.58,2.09-2.09,39.08-39.09c6.41-6.41,9.94-14.94,9.94-24.01s-3.53-17.59-9.94-24.01Zm-65.95,2.68c5.58,0,10.82,2.17,14.76,6.11l2.86,2.86,3.58,3.58,3.58-3.58,2.4-2.4c3.94-3.94,9.19-6.11,14.76-6.11s10.82,2.17,14.76,6.11c3.94,3.94,6.11,9.19,6.11,14.76,0,5.58-2.17,10.82-6.11,14.76l-35.51,35.51-35.96-35.96c-3.94-3.94-6.11-9.19-6.11-14.76s2.17-10.82,6.11-14.76c3.94-3.94,9.19-6.11,14.76-6.11Z"/>
  <path class="cls-3" d="m179.51,248.23c-6.41,6.41-14.94,9.94-24.01,9.94-7.58,0-14.78-2.47-20.68-7.02-6.01,4.84-13.43,7.47-21.26,7.47-9.07,0-17.59-3.53-24.01-9.94-6.41-6.41-9.94-14.94-9.94-24.01s3.53-17.59,9.94-24.01l39.54-39.54,2.09-2.09,3.58-3.58,3.58,3.58,2.09,2.09,39.08,39.09c6.41,6.41,9.94,14.94,9.94,24.01s-3.53,17.59-9.94,24.01Zm-65.95-2.68c5.58,0,10.82-2.17,14.76-6.11l2.86-2.86,3.58-3.58,3.58,3.58,2.4,2.4c3.94,3.94,9.19,6.11,14.76,6.11s10.82-2.17,14.76-6.11c3.94-3.94,6.11-9.19,6.11-14.76,0-5.58-2.17-10.82-6.11-14.76l-35.51-35.51-35.96,35.96c-3.94,3.94-6.11,9.19-6.11,14.76s2.17,10.82,6.11,14.76c3.94,3.94,9.19,6.11,14.76,6.11Z"/>
  <path class="cls-4" d="m238.49,189.35c6.41-6.41,9.94-14.94,9.94-24.01,0-7.58-2.47-14.78-7.02-20.68,4.84-6.01,7.47-13.43,7.47-21.26,0-9.07-3.53-17.59-9.94-24.01-6.41-6.41-14.94-9.94-24.01-9.94-9.07,0-17.59,3.53-24.01,9.94l-39.54,39.54-2.09,2.09-3.58,3.58,3.58,3.58,2.09,2.09,39.09,39.08c6.41,6.41,14.94,9.94,24.01,9.94,9.07,0,17.59-3.53,24.01-9.94Zm-2.68-65.95c0,5.58-2.17,10.82-6.11,14.76l-2.86,2.86-3.58,3.58,3.58,3.58,2.4,2.4c3.94,3.94,6.11,9.19,6.11,14.76s-2.17,10.82-6.11,14.76c-3.94,3.94-9.19,6.11-14.76,6.11-5.58,0-10.82-2.17-14.76-6.11l-35.51-35.51,35.96-35.96c3.94-3.94,9.19-6.11,14.76-6.11s10.82,2.17,14.76,6.11c3.94,3.94,6.11,9.19,6.11,14.76Z"/>
  <polygon class="cls-5" points="472.96 202.55 472.84 117.67 472.78 72.58 455.96 72.58 396.86 173.44 374.91 136.45 402.92 72.58 382.41 72.58 363.05 116.47 354.33 136.24 339.87 169.01 330.33 190.63 320.19 167.45 278.63 72.58 256.48 72.58 319.66 216.16 320.19 216.16 339.87 216.16 339.95 216.16 366.26 156.16 391.76 198.72 401.2 198.72 453.1 111.46 453.29 216.16 472.98 216.16 472.96 202.55"/>
</svg>